<?xml version="1.0" standalone="no"?><!DOCTYPE svg PUBLIC "-//W3C//DTD SVG 1.1//EN" "http://www.w3.org/Graphics/SVG/1.1/DTD/svg11.dtd"><svg t="1596947284810" class="icon" viewBox="0 0 1024 1024" version="1.1" xmlns="http://www.w3.org/2000/svg" p-id="15164" xmlns:xlink="http://www.w3.org/1999/xlink" width="32" height="32"><defs><style type="text/css"></style></defs><path d="M102.4 715.424v-4.096 4.096zM920.224 297.984c1.376 6.816 1.376 13.664 1.376 19.808 0 81.92-0.672 314.368 0.352 396.288V308.576c-0.352-3.744-1.024-7.168-1.696-10.592zM771.424 358.752l138.912-79.2-138.912 79.2c0-0.352 0 0 0 0zM918.88 294.56c0.352 1.024 1.024 2.048 1.024 3.424a5.856 5.856 0 0 0-1.024-3.424zM378.528 582.304a150.848 150.848 0 0 0 263.52 6.144L503.136 512l137.568-78.496s0-0.352-0.352-0.352l-261.792 149.152zM511.648 59.392c4.096 0 8.544 0.672 12.288 1.696a35.392 35.392 0 0 0-12.288-1.696zM914.08 284c0.352 0.672 1.024 1.024 1.376 1.696a7.872 7.872 0 0 1-1.376-1.696z" fill="#283593" p-id="15165"></path><path d="M774.144 661.152A301.344 301.344 0 0 1 512 813.728c-114.016 0-212.992-63.136-264.544-156.672l-138.592 79.2a31.776 31.776 0 0 1-5.12-10.912c2.72 12.288 10.592 23.2 22.176 29.696 72.352 40.608 290.144 162.816 362.144 203.424a48.896 48.896 0 0 0 47.456 0c72.352-40.608 290.144-162.816 362.144-203.424a45.76 45.76 0 0 0 23.552-39.936v-1.376c0 8.544-2.72 17.408-6.816 24.224l-140.288-76.8z" fill="#283593" p-id="15166"></path><path d="M512 361.12a150.912 150.912 0 0 0-133.472 221.184l261.792-149.504a150.72 150.72 0 0 0-128.352-71.68z" fill="#5C6BC0" p-id="15167"></path><path d="M247.456 657.408A297.92 297.92 0 0 1 210.24 512c0-166.56 135.168-301.728 301.728-301.728 110.592 0 206.848 59.744 259.424 148.128l138.912-79.2 0.352-0.352a45.184 45.184 0 0 0-14.336-12.288c-72.032-40.288-288.416-160.768-360.448-201.056-3.744-2.048-7.52-3.744-11.616-4.768s-8.192-1.376-12.288-1.696c-8.544 0-17.408 1.696-24.928 6.144A196025.184 196025.184 0 0 1 125.92 267.584a45.216 45.216 0 0 0-23.552 39.584v409.28c0 3.072 0.352 6.144 1.376 8.864a31.776 31.776 0 0 0 5.12 10.912l138.592-78.848z" fill="#5C6BC0" p-id="15168"></path><path d="M512 210.272c-166.56 0-301.728 135.168-301.728 301.728 0 52.576 13.664 102.048 37.216 145.408 51.552 93.184 150.528 156.672 264.544 156.672 112.288 0 210.272-61.792 262.144-152.576L642.08 588.8a150.56 150.56 0 0 1-130.048 74.4 151.296 151.296 0 0 1-133.472-80.544 150.912 150.912 0 0 1 133.472-221.184 151.04 151.04 0 0 1 128.352 72.032s0 0.352 0.352 0.352l131.072-74.752v-0.352c-52.896-89.088-149.152-148.48-259.744-148.48z" fill="#FFFFFF" p-id="15169"></path><path d="M921.248 317.792c0-6.144 0-12.96-1.376-19.808-0.352-1.024-0.672-2.4-1.024-3.424a27.392 27.392 0 0 0-3.744-8.544c-0.352-0.672-1.024-1.024-1.376-1.696-1.024-1.696-2.048-3.424-3.424-4.768L503.104 512l411.648 226.304c4.096-6.816 7.168-15.712 6.816-24.224-1.024-81.92-0.352-314.368-0.352-396.288z" fill="#3949AB" p-id="15170"></path></svg>