<?xml version="1.0" standalone="no"?><!DOCTYPE svg PUBLIC "-//W3C//DTD SVG 1.1//EN" "http://www.w3.org/Graphics/SVG/1.1/DTD/svg11.dtd"><svg t="1596946772769" class="icon" viewBox="0 0 1024 1024" version="1.1" xmlns="http://www.w3.org/2000/svg" p-id="10570" xmlns:xlink="http://www.w3.org/1999/xlink" width="32" height="32"><defs><style type="text/css"></style></defs><path d="M518.227513 160.581543c-8.445531 6.056896-15.078259 15.462147-19.301025 26.232333a72.405503 72.405503 0 0 0 1.812803 42.35562c3.625607 14.11854 11.452652 26.872145 22.308147 35.616256 5.417083 4.052149 11.452652 6.739363 18.08538 8.104298 6.611401 0.639813 13.265456-0.682467 19.279698-4.052149 7.251214-4.691962 12.668297-11.431325 16.272577-19.492969a96.185219 96.185219 0 0 0 5.43841-26.232333 104.588096 104.588096 0 0 0-3.625606-33.611509c-3.625607-12.113793-10.237008-22.180184-19.898184-28.919547a46.727675 46.727675 0 0 0-15.654091-6.718036c-5.43841-0.682467-11.452652 0-16.293905 2.004747-2.985794 1.343607-6.014242 3.369682-8.424204 4.713289" fill="#FFFFFF" p-id="10571"></path><path d="M835.425465 617.962521c-6.09955-32.054631-14.886316-64.109261-27.085416-94.11649a268.870745 268.870745 0 0 0-33.16364-63.405467c-14.225175-19.109081-31.820033-34.784499-45.362741-53.893581-7.443158-9.533214-13.542708-21.113829-20.985866-30.668369-3.391009-6.142205-6.09955-12.966877-8.786765-19.109081-8.808092-19.770221-17.616184-40.22291-28.450351-59.331992a62.339112 62.339112 0 0 0-5.417083-8.850746c-1.343607-18.426614-3.369682-36.149434-4.052149-54.576048a535.608779 535.608779 0 0 0-8.808092-109.109441 197.382307 197.382307 0 0 0-21.647006-49.094984 158.439023 158.439023 0 0 0-41.971732-45.682647 157.479303 157.479303 0 0 0-93.412696-30.007229 145.130913 145.130913 0 0 0-71.10455 16.357885 132.739868 132.739868 0 0 0-53.467039 55.919656c-10.834167 23.886352-16.933717 49.77745-16.933717 75.711203-0.682467 25.912426 1.364934 51.142385 2.708541 77.054811 0.682467 26.594893 0.682467 53.189786 2.708542 79.78468 0.682467 8.872073 2.026074 17.06168 1.364934 25.912426v13.649343a547.95717 547.95717 0 0 1-37.919583 56.602123c-9.469232 12.263082-19.620932 24.526165-29.111491 36.810574a228.114657 228.114657 0 0 0-32.502499 47.751376c-6.078223 14.992951-10.151699 30.689696-14.203849 46.365114l-0.682467 1.364934a381.755083 381.755083 0 0 1-20.303399 52.50732c-0.682467 1.364934-1.364934 3.412336-2.026074 4.77727-4.755943 10.237008-10.151699 20.474016-15.568783 30.007229l-6.09955 11.601942c-4.052149 6.824672-7.464485 14.310484-10.1517 21.113829-2.026074 4.11613-2.708542 8.872073-4.052149 13.649344a71.019242 71.019242 0 0 0 2.026075 29.324762c0.66114 2.729869 1.343607 4.77727 2.026074 7.507139 2.708542 6.824672 5.417083 14.331811 8.786765 20.474015 1.364934 2.708542 3.412336 6.120878 4.755943 8.850747l1.343608 2.047401c1.364934 2.729869 3.391009 5.459737 4.734616 8.189606 2.047402 3.412336 4.052149 6.120878 6.09955 9.533214v0.682467c2.026074 2.729869 4.052149 6.142205 6.760691 8.872074a238.927497 238.927497 0 0 0 44.680274 90.00036c-3.369682 5.481065-6.078223 11.601942-9.469233 17.06168-11.516634 17.06168-20.985866 34.784499-28.429023 53.872253-3.391009 9.554541-4.052149 20.474016-2.026075 30.007229 2.026074 10.237008 6.760691 19.109081 14.886316 25.912426 5.417083 4.094803 11.516634 6.824672 18.277324 8.189607a95.971948 95.971948 0 0 0 19.620932 2.047401 301.927749 301.927749 0 0 0 73.791764-14.992951 459.385725 459.385725 0 0 1 44.019134-10.237008c15.568783-3.412336 30.455098-5.459737 46.706348-6.142204 4.052149 0 7.443158 0 11.516634-0.682468 10.812839 1.364934 20.964539 1.364934 31.798705 1.364935h4.052149c2.729869 0 5.43841 0.682467 8.146952 0.682467 18.938464 1.364934 37.215789 2.729869 56.175581 5.459737 16.25125 2.729869 32.5025 5.459737 48.753749 9.554541 25.038015 7.485812 50.097357 12.263082 75.817839 14.992951 6.760691 0 13.542708 0 20.303399-1.364934 6.760691-1.364934 12.860241-4.094803 18.277324-8.189607 8.104298-6.824672 12.860241-15.675418 14.886316-25.912426 1.364934-10.237008 0.682467-20.452689-2.026074-30.689696-7.443158-19.087754-16.91239-37.493041-29.111491-53.872253-4.052149-6.824672-8.104298-14.310484-12.177774-21.135156a382.629494 382.629494 0 0 0 46.023881-64.109262c8.125625 0.682467 15.568783-0.682467 23.033267-2.729868 19.620932-6.824672 37.215789-19.770221 48.732423-36.810574 3.391009-5.459737 6.09955-10.919475 8.104298-17.06168 7.464485-12.263082 12.881568-25.912426 15.568782-40.22291 5.43841-21.83895 4.755943-45.703974 0-69.568999z" fill="#020204" p-id="10572"></path><path d="M421.359827 301.574999a41.289265 41.289265 0 0 0-7.464485 15.526128 71.659055 71.659055 0 0 0-2.047402 16.848409c0.682467 11.47398-0.682467 22.947959-2.708541 33.739472a111.881965 111.881965 0 0 1-17.637512 31.69207 194.076606 194.076606 0 0 0-31.180219 55.322496 101.026471 101.026471 0 0 0-3.412336 37.748966 393.61295 393.61295 0 0 0-35.232369 64.087935 360.513292 360.513292 0 0 0-29.175472 106.571516c-4.734616 45.213451 2.047402 91.066715 18.981119 132.867831a220.778135 220.778135 0 0 0 56.964683 78.931595 210.498473 210.498473 0 0 0 41.374573 27.661249 189.768532 189.768532 0 0 0 167.481713-1.343608c26.445604-15.526129 50.182665-33.739472 71.189858-55.983636a226.493798 226.493798 0 0 0 35.936163-40.478835 222.377668 222.377668 0 0 0 29.85794-99.171013c10.834167-60.696925 4.052149-122.737458-19.002446-179.403562-9.490559-18.874483-21.02852-36.426686-35.936163-51.270348-4.052149-26.296314-11.516634-52.613955-23.054595-76.884194-8.146952-17.530876-18.319979-34.400612-25.763136-51.931487-3.412336-7.421831-5.43841-14.843661-9.490559-21.583025-3.412336-7.421831-7.464485-14.182521-13.564036-19.578277a59.182701 59.182701 0 0 0-21.02852-12.13512 70.166158 70.166158 0 0 0-23.737062-4.052149c-16.272577-0.66114-32.545154 1.364934-48.817731 0.682467-12.881568-0.682467-25.763136-2.708542-38.644704-2.026074-6.782018 0-12.881568 1.343607-18.981119 4.052149-5.43841 1.343607-10.855494 5.395756-14.928969 10.109045m5.43841-140.972129c-6.120878 0.682467-12.220428 2.708542-16.272577 7.421831-4.073476 4.052149-7.464485 9.447905-9.511886 15.504802a79.933969 79.933969 0 0 0-2.026075 35.765546c0 10.791512 2.026074 21.583025 5.417083 32.374537 2.047402 5.395756 4.755943 10.109045 8.82942 13.478727 4.052149 4.052149 8.808092 6.760691 14.225175 8.104298 4.755943 1.343607 10.173027 1.343607 15.611437-0.682468a26.232333 26.232333 0 0 0 12.881568-8.104297c5.417083-5.374429 8.808092-12.13512 10.834167-19.535624a83.388959 83.388959 0 0 0 2.729868-22.265492c0-9.447905-1.364934-18.89581-4.073476-27.661248a59.11872 59.11872 0 0 0-14.246502-24.270239 41.353246 41.353246 0 0 0-10.834167-8.104298c-4.073476-0.682467-8.829419-2.026074-13.564035-2.026075m107.808488 0c-9.490559 6.078223-16.955044 15.526129-21.710987 26.317641-4.052149 14.161194-3.391009 29.004855 2.047402 42.483583a66.967093 66.967093 0 0 0 25.080669 35.744219c6.09955 4.052149 12.881568 6.760691 20.346053 8.104298 7.464485 0.682467 14.92897-0.682467 21.68966-4.052149 8.146952-4.713289 14.246503-11.47398 18.319979-19.556951 3.391009-8.104298 5.417083-17.530876 6.09955-26.317641a94.137818 94.137818 0 0 0-4.052149-33.696817c-4.094803-12.156447-11.537961-22.286819-22.393454-29.004855a56.090272 56.090272 0 0 0-17.637512-6.760691c-6.09955-0.682467-12.881568 0-18.298651 2.026074-3.391009 1.343607-6.782018 3.369682-9.49056 4.713289" fill="#FFFFFF" p-id="10573"></path><path d="M553.161302 170.925187c-3.199065 0-6.39813 1.407589-9.55454 3.518971-2.559252 2.090056-5.118504 4.905233-7.016616 7.699083a39.817695 39.817695 0 0 0-5.715663 21.02852c0 5.609027 0.639813 11.218054 1.919439 16.123288 1.898112 5.609027 4.436037 9.810466 8.253588 13.30811 3.838878 3.518971 8.914728 5.609027 14.011904 6.312821 5.07585 0 10.173027-1.407589 14.63039-4.905233 3.199065-2.79385 6.355476-6.312821 8.274915-9.810466 1.919439-4.201439 3.177738-8.402877 3.817551-12.625643 1.279626-7.699083 0-16.10196-3.199065-23.118575a29.879267 29.879267 0 0 0-15.888689-15.419493c-3.199065-2.111383-6.376803-2.815177-9.554541-2.111383" fill="#020204" p-id="10574"></path><path d="M421.509116 153.607582c-5.843625 0.618486-11.687251 2.431289-15.568782 6.696709-3.902859 3.625607-7.144578 8.509513-9.085345 13.96925a68.033448 68.033448 0 0 0-1.919439 32.203921c0 9.746485 1.919439 19.471642 5.161158 29.218126 1.940766 4.841252 4.542672 9.106672 8.445532 12.156447 3.881532 3.625607 8.424204 6.056896 13.606689 7.272541 4.542672 1.215645 9.725157 1.215645 14.92897-0.597159 4.521345-1.215645 9.064017-3.646934 12.305737-7.293868 5.182485-4.862579 8.424204-10.940802 10.36497-17.637511 1.940766-6.675382 2.601906-13.372091 2.601906-20.047474 0-8.53084-1.300953-17.040353-3.902859-24.952706a52.677936 52.677936 0 0 0-13.60669-21.860278 39.455134 39.455134 0 0 0-10.36497-7.293868c-3.902859-0.618486-8.445531-1.834131-12.966877-1.83413" fill="#FFFFFF" p-id="10575"></path><path d="M411.698651 203.10778c-1.130336 6.120878-1.130336 12.79626 1.109009 18.917137 1.684841 3.881532 3.924186 7.784391 6.718036 10.556915a15.270203 15.270203 0 0 0 6.718037 5.011868c2.239345 1.109009 5.609027 1.663514 7.848372 1.109009a11.729905 11.729905 0 0 0 6.142205-4.457364 18.746521 18.746521 0 0 0 3.369682-6.675382 33.696817 33.696817 0 0 0-0.554505-22.244165c-1.706168-5.545046-4.478691-10.00241-8.402877-13.883942a18.981119 18.981119 0 0 0-6.718037-3.348354 12.369718 12.369718 0 0 0-7.848372 0.554504 11.047438 11.047438 0 0 0-6.142205 6.120878c-0.575832 2.218018-1.706168 5.545046-2.239345 8.338896" fill="#020204" p-id="10576"></path><path d="M393.826541 292.724252c0 0.639813 0.639813 2.004747 1.32228 2.665888a11.303363 11.303363 0 0 0 3.988168 4.009495 10.684877 10.684877 0 0 0 4.649308 2.665887c7.955008 5.331775 14.609063 12.028484 19.919511 19.365007 6.611401 10.706204 15.270203 20.047474 24.547491 28.066463 7.315195 4.691962 15.931343 8.018989 24.568819 8.680129 9.959756 0.66114 20.580651-0.66114 30.540407-3.348354 9.298615-2.665887 17.914764-6.675382 25.891099-11.346017a295.252367 295.252367 0 0 1 45.149469-30.071211c3.988168-1.32228 7.293868-2.665887 11.282036-3.988168 3.988168-1.343607 6.632728-4.009495 8.637475-8.018989 1.32228-3.348355 1.98342-7.357849 1.983421-11.367344 0.66114-4.009495 1.98342-8.018989 2.665887-12.007157a24.675454 24.675454 0 0 0-0.682467-12.028484c-1.32228-3.348355-3.966841-5.331775-7.293868-7.35785a48.668441 48.668441 0 0 0-9.298616-2.665887c-6.632728 0-13.265456 0.66114-19.919511 2.004747-8.616148 0.66114-17.914764 0-26.552239 0-11.282036 0-21.902931 2.665887-33.184967 3.348355-12.625643 0.639813-25.229959-1.343607-37.855601-2.004747-5.310448 0-11.282036 0-16.592484 0.639812a33.398238 33.398238 0 0 0-15.270203 6.03557 172.109694 172.109694 0 0 0-11.943176 10.663549 23.843697 23.843697 0 0 1-6.632728 4.691962 17.594857 17.594857 0 0 1-7.976335 2.004748h-3.988168c-0.639813 0-1.32228 0.66114-1.98342 1.343607-0.66114 0.66114-1.32228 1.32228-1.32228 2.004747-2.004747 2.665887-3.327028 4.670635-4.649308 6.014242" fill="#D99A03" p-id="10577"></path><path d="M430.999676 273.807115a145.877361 145.877361 0 0 0-12.94555 9.639849 16.933717 16.933717 0 0 0-5.161158 6.675382c-0.639813 2.218018-1.279626 4.457364-1.279626 5.928934v6.675382c0 1.492897-0.66114 2.985794-0.66114 4.457364v2.218018c0 0.746448 0.639813 1.492897 0.639813 2.218019 0.639813 0.746448 1.300953 1.492897 1.940766 1.492897s1.279626 0.746448 2.601906 0.746448c3.860205 1.492897 7.101924 3.689588 10.343644 6.654055 3.220392 2.985794 5.800971 6.675382 8.402877 9.639849 8.402877 7.421831 19.386334 11.132746 29.729977 11.132746 10.343643 0 21.3271-2.218018 31.670743-5.182485a232.465386 232.465386 0 0 0 23.929005-7.421831 103.649704 103.649704 0 0 0 32.971696-22.244164 80.616436 80.616436 0 0 1 13.564036-12.604316c4.521345-2.985794 9.064017-5.203812 13.585362-8.168279 0.639813 0 0.639813-0.725121 1.279626-0.725122s0.639813-0.746448 0.639813-1.492897v-2.964467c0-0.746448-0.639813-1.492897-0.639813-2.218018l-1.919439-2.239346a25.699155 25.699155 0 0 0-16.827081-6.675382c-6.462111-0.725121-12.284409 0-18.085381-1.492897a145.706744 145.706744 0 0 1-16.827081-5.161158c-5.800971-2.239345-11.623269-3.710915-17.445568-5.203812-14.225175-2.218018-28.450351-2.218018-42.014386 1.492897-12.924222 1.492897-25.869772 7.400504-37.493041 14.822334" fill="#604405" p-id="10578"></path><path d="M421.03992 253.69566c-6.803345 4.649308-12.241755 9.981083-17.701492 15.973998a38.772667 38.772667 0 0 0-6.803345 11.303363c-0.66114 3.327028-2.026074 6.654055-2.026075 9.981082 0 1.343607-0.682467 2.665887-0.682467 3.988168v2.004747c0 0.66114 0.682467 1.32228 0.682467 1.98342a5.203812 5.203812 0 0 0 2.708542 1.343608c1.364934 0 2.047402 0 3.412336 0.66114 4.755943 0.66114 9.533214 2.665887 13.606689 5.971588 4.094803 2.687215 8.168279 6.014242 12.263083 8.658802 9.533214 5.331775 20.410034 8.658802 31.308182 8.658803 10.876821 0 22.457436-0.66114 33.355584-3.327028a109.237404 109.237404 0 0 0 25.187304-7.315195 179.574179 179.574179 0 0 0 34.720518-19.962165c4.755943-3.327028 9.533214-7.315195 14.289157-11.303363a29.431397 29.431397 0 0 1 4.755943-4.009495 14.864988 14.864988 0 0 1 5.459738-3.327027c3.412336-0.639813 6.120878-0.639813 9.533213 0 2.026074 0.682467 4.755943 0.682467 6.803345 0.682467 1.364934 0 2.047402 0 3.412336-0.682467a9.383924 9.383924 0 0 0 2.708542-1.983421 9.319943 9.319943 0 0 0 1.364934-3.988167 12.13512 12.13512 0 0 0-1.364934-4.670635 16.571156 16.571156 0 0 0-7.485812-5.971588c-4.073476-1.343607-8.168279-2.665887-12.241755-3.348355a192.882289 192.882289 0 0 1-37.450387-13.30811c-6.120878-2.64456-11.580615-5.971588-17.701493-9.298615a109.834563 109.834563 0 0 0-18.38396-7.997663 71.787017 71.787017 0 0 0-44.232404 2.004748c-14.289157 5.331775-28.578313 15.29153-39.497789 27.27736" fill="#F5BD0C" p-id="10579"></path><path d="M493.274807 244.418372c0.703794 4.500018 4.905233 3.369682 7.741737 5.630354 2.111383 2.239345 4.222766 5.630354 6.334148 5.630354 2.111383 0 5.609027-1.130336 6.312822-4.500018 0.703794-4.500018-4.201439-7.891027-7.037943-10.130372-3.497644-2.260673-7.72041-3.369682-11.943176 0-0.703794 0-1.407589 2.239345-1.407588 3.369682z m-40.798742-2.239346c-2.815177-1.130336-8.445531 6.739363-7.037943 11.239382 0.703794 1.130336 2.111383 3.369682 2.815177 2.260672 0.703794-1.130336 2.815177-5.630354 4.222766-7.891026 2.111383-1.109009 1.407589-5.609027 0-5.609028z" fill="#CD8907" p-id="10580"></path><path d="M941.314515 876.020427c-1.98342 6.163532-5.331775 11.623269-9.34127 16.421866a97.464845 97.464845 0 0 1-33.376911 23.929006 680.61173 680.61173 0 0 0-62.083186 33.526201c-13.372091 8.893401-25.379249 19.151735-36.725266 30.092537-9.362597 9.597195-19.365006 19.151735-30.049883 27.362669-10.66355 8.210933-23.374501 13.691998-36.725266 15.739399a88.464809 88.464809 0 0 1-48.071282-7.528466c-10.66355-4.094803-20.047474-11.623269-26.701529-21.199137a67.350981 67.350981 0 0 1-7.357849-34.208668c0.682467-21.199137 3.348355-41.715807 7.357849-62.253803 2.665887-17.083007 6.014242-34.187341 7.336522-51.291675 3.348355-31.457472 3.348355-63.618738 1.343607-95.07621a61.976551 61.976551 0 0 1 0-15.739399 20.047474 20.047474 0 0 1 20.026147-19.151736c4.691962 0 9.34127 0 14.011904 1.364935 11.367344 1.364934 22.052221 3.412336 33.398238 6.163531 6.675382 2.047402 13.350764 4.094803 20.687287 6.142205 11.346017 3.412336 23.374501 4.798597 35.402985 3.412336 12.668297-2.708542 25.379249-4.77727 38.047546-6.142205 5.331775 0 10.66355 1.364934 15.355512 2.729869 5.331775 1.386261 10.023737 4.11613 14.011904 8.210933 2.687215 2.751196 5.331775 6.845999 6.675382 10.258335 2.004747 5.481065 3.348355 11.644596 4.009495 17.786801 0 5.481065 0.682467 10.962129 1.343607 16.421867 2.004747 8.893401 6.014242 17.104334 12.007157 23.950333 6.014242 6.824672 12.028484 12.988204 19.365007 18.469268 6.675382 5.459737 13.350764 11.623269 20.687287 16.421867 3.348355 2.047402 6.696709 4.77727 10.023736 7.507139 3.348355 2.729869 6.014242 5.481065 8.01899 9.597195 2.004747 5.459737 2.665887 11.601942 1.343607 17.083007" fill="#F5BD0C" p-id="10581"></path><path d="M941.314515 876.36166a49.2656 49.2656 0 0 1-9.554541 16.379213c-9.533214 10.237008-21.113829 18.426614-34.080705 23.886351-21.83895 10.237008-42.974106 21.156483-63.426794 33.440892-13.649344 8.872073-25.912426 19.109081-37.514368 30.028557-9.554541 9.554541-19.770221 19.109081-30.689697 27.298687-10.898148 8.189606-23.865024 13.649344-37.514368 15.696745a92.28236 92.28236 0 0 1-49.094983-7.507139 59.502608 59.502608 0 0 1-27.27736-21.156482 65.900738 65.900738 0 0 1-7.507139-34.12336c0.682467-21.156483 3.412336-41.630498 7.507139-62.104514 2.729869-17.06168 6.142205-34.123359 7.507139-51.185039 3.412336-31.393491 3.412336-63.469448 1.364934-94.862939a60.398346 60.398346 0 0 1 0-15.696745 20.260745 20.260745 0 0 1 20.474016-19.109081c4.755943 0 9.533214 0 14.289156 1.364934 11.601942 1.364934 22.521417 3.412336 34.12336 6.142205 6.824672 2.047402 13.628017 4.094803 21.113828 6.142204 11.601942 3.412336 23.886352 4.77727 36.149434 3.412336a383.162671 383.162671 0 0 1 38.879303-6.142204c5.459737 0 10.919475 1.364934 15.675418 2.729868 5.459737 1.364934 10.237008 4.094803 14.331811 8.189606 2.729869 2.729869 5.459737 6.824672 6.824672 10.237008 2.047402 5.459737 3.412336 11.601942 4.094803 17.744147 0 5.459737 0.682467 10.919475 1.364934 16.379213 2.026074 8.872073 6.120878 17.06168 12.263082 23.886351 6.142205 6.824672 12.284409 12.966877 19.770222 18.426614 6.824672 5.459737 13.649344 11.601942 21.156483 16.379213 3.412336 2.047402 6.824672 4.77727 10.237007 7.507139 3.412336 2.729869 6.120878 5.459737 8.16828 9.55454 2.047402 5.459737 2.729869 11.601942 1.364934 17.06168m-716.057369-174.7116a31.137565 31.137565 0 0 1 17.72282-1.364934c6.142205 1.364934 11.601942 3.412336 16.379212 6.824672 9.554541 7.507139 17.72282 16.379212 23.886352 25.933753 16.336558 21.83895 31.350836 45.042834 45.66132 68.246719 11.601942 19.109081 21.83895 38.90063 34.784499 56.644776 8.872073 11.601942 18.426614 22.521417 26.594894 34.123359 8.872073 11.601942 15.696745 24.568819 19.791548 38.218163a79.059558 79.059558 0 0 1-5.459737 54.597375 76.777559 76.777559 0 0 1-26.594894 28.663622c-11.601942 6.824672-24.547492 10.237008-38.175508 9.55454-21.156483-2.729869-40.948031-9.554541-60.035785-19.109081-39.540443-15.696745-83.175688-21.156483-124.12372-33.440892a788.18562 788.18562 0 0 0-37.493041-11.601942 115.081029 115.081029 0 0 1-16.379213-5.459738 25.59252 25.59252 0 0 1-12.945549-10.919475 30.625715 30.625715 0 0 1-3.412336-12.966876c0-4.77727 1.364934-8.872073 2.729869-12.966877 3.412336-8.189606 8.189606-16.379212 11.580615-24.568819 4.77727-13.649344 6.824672-28.663622 5.459737-43.6779-0.682467-15.014278-3.412336-29.346089-4.094803-44.360367a64.322532 64.322532 0 0 1 0.682467-19.791548 29.665996 29.665996 0 0 1 25.251286-25.251286c6.120878-1.364934 12.263082-1.364934 18.405287-1.364934h18.405287c6.142205 0 12.284409-2.047402 17.744147-4.777271 4.755943-2.729869 9.533214-6.824672 12.263082-11.601942 3.412336-4.77727 6.142205-9.554541 8.872074-15.014278 2.729869-5.459737 6.142205-10.237008 9.55454-14.331811a28.151771 28.151771 0 0 1 12.94555-10.237008" fill="#F5BD0C" p-id="10582"></path><path d="M224.553352 701.65006c5.417083-2.047402 11.516634-2.729869 17.637511-1.364934 6.09955 1.364934 11.537961 3.412336 16.293904 6.824672 9.490559 7.549793 17.637511 16.421867 23.737062 26.019061 16.293904 21.860277 31.222874 45.106816 45.469376 68.353354 11.516634 19.130408 21.710987 38.964611 34.592556 56.730085 8.829419 11.623269 18.341306 22.564071 26.46693 34.187341 8.829419 11.623269 15.611437 24.611473 19.684913 38.282144a79.699371 79.699371 0 0 1-5.43841 54.70401 76.713577 76.713577 0 0 1-26.445604 28.706276c-11.537961 6.824672-24.440856 10.258335-38.004891 9.575868-21.02852-2.729869-40.713433-9.575868-59.715879-19.151735-39.348499-15.718072-82.770474-21.17781-123.483907-33.483547a780.273266 780.273266 0 0 0-37.322424-11.623269 113.950693 113.950693 0 0 1-16.272577-5.481065 25.528538 25.528538 0 0 1-12.902895-10.940802A30.860313 30.860313 0 0 1 85.458008 929.999316c0-4.77727 1.364934-8.872073 2.708542-12.988204 3.412336-8.189606 8.146952-16.421867 11.537961-24.611473a105.185255 105.185255 0 0 0 5.43841-43.741881c-0.682467-15.056932-3.412336-29.41007-4.073476-44.445676-0.682467-6.824672-0.682467-13.009531 0.682467-19.834202 2.026074-12.988204 11.516634-23.246539 25.101996-25.293941 6.09955-1.364934 12.199101-1.364934 18.319979-1.364934h18.319978c6.09955 0 12.199101-2.047402 17.637512-4.77727 4.755943-2.751196 9.490559-6.824672 12.220428-11.62327a108.981479 108.981479 0 0 0 8.808092-15.056932c2.708542-5.459737 6.09955-10.237008 9.511886-14.353138 2.708542-4.094803 7.464485-8.189606 12.881569-10.237008" fill="#F5BD0C" p-id="10583"></path><path d="M234.257182 701.2875c4.585326-1.962093 10.51426-1.962093 15.120914-1.300954 5.246467 1.32228 9.85312 3.3057 13.798633 6.611401 7.891027 6.611401 14.459774 15.206222 19.066427 24.462184a1062.217523 1062.217523 0 0 1 38.132854 65.474195c8.53084 17.189642 18.405287 33.057004 29.580687 48.924367 7.251214 9.917101 15.782054 19.19439 23.673081 29.772631 7.891027 9.917101 13.798633 21.156483 17.744147 33.057004 4.606654 15.867362 2.623233 33.057004-5.246467 47.623414-5.267794 10.578241-13.819961 19.173063-23.67308 25.123323-9.874447 5.950261-21.710987 8.594821-33.526201 8.594821-18.426614-2.64456-36.170761-8.594821-53.253768-16.528502-33.526201-11.900522-69.696961-13.883942-103.862975-23.139903-12.519007-3.327028-24.355548-7.955008-36.831901-11.260709-5.267794-1.32228-11.1754-2.64456-16.421866-4.62798a29.431397 29.431397 0 0 1-13.158821-10.578242c-1.98342-3.966841-3.3057-7.933681-2.64456-11.900521 0-3.966841 1.32228-8.594821 2.64456-12.582989 3.284373-7.912354 7.891027-15.184895 10.51426-23.118576 3.945513-11.900522 5.907607-25.14465 4.606654-37.706312-0.66114-12.561662-3.3057-25.123323-3.945514-38.346125-0.66114-5.971588 0-11.239381 0.639813-17.189643 1.32228-5.971588 3.945513-10.599569 7.891027-15.227549 4.606654-3.966841 10.535587-6.611401 16.443194-7.933681 5.907607-0.639813 12.49768-0.639813 18.405287 0 5.928934 0.66114 12.49768 1.32228 18.405287 0.66114 5.928934 0 12.49768-1.98342 17.765474-5.28912 4.585326-3.3057 8.53084-7.933681 10.51426-12.561662 2.623233-5.289121 4.606654-9.917101 6.568747-15.206222 1.98342-5.289121 4.606654-10.578241 7.251213-15.206222 4.585326-4.627981 9.170653-8.594821 13.798634-10.578241" fill="#F5BD0C" p-id="10584"></path></svg>