<?xml version="1.0" standalone="no"?><!DOCTYPE svg PUBLIC "-//W3C//DTD SVG 1.1//EN" "http://www.w3.org/Graphics/SVG/1.1/DTD/svg11.dtd"><svg t="1596946487321" class="icon" viewBox="0 0 1024 1024" version="1.1" xmlns="http://www.w3.org/2000/svg" p-id="3740" width="32" height="32" xmlns:xlink="http://www.w3.org/1999/xlink"><defs><style type="text/css"></style></defs><path d="M745.6 197.7c-0.3-3.9-4.5-29.8-4.8-39.4 0 0 0.3-25 0.3-37.5 0-36.4-10.3-46.5-47-45.8-32.6 25.5-362.6 327.3-374.7 340.8l1.3 0.6c8.5 14.6 140 108.7 144.9 112.3 44-37.1 262.9-195 272.2-207.8 5.9-10.3 8.1-121.3 7.8-123.2z" fill="#0074B5" p-id="3741"></path><path d="M298.5 626.3c-5.9-8.6-13.2-15.9-21.9-21.6 0 0-2.5-4.8-3.7-7.2-22.9-25.7-47.7-49.3-76.2-68.8-1.1 0-2.1-0.1-3.2-0.1-27 25.2-132.7 119.2-142.5 133.9-10.6 18.8-9 36 6 50.4 16.1 15.4 32.6 30.3 49.5 44.8 17.4 14.9 35.4 15.2 54.3 1.2 27.1-20.1 144.4-113.4 156.2-122.1-3.6-5.9-18.5-10.5-18.5-10.5z" fill="#006FB1" p-id="3742"></path><path d="M972.9 826.1V252.6c-0.2 0 0.3-35.5-0.3-41.7-1.6-16.3-4.5-30.2-20.9-38.1 0-13.8-97.8-52.2-109.2-57.6-37.2-17.8-108.3-70.7-148.4-40.4 7.6 8.8 24.7 5.6 33.3 14.6 7.9 8.3 7.9 18.5 8.6 29.4 1.1 16.7 0.3 302.6 0.8 326.1 0.3 16.8-0.7 450.2-1 476.1-0.2 15.7-1.4 50.8-1.9 50.2-11.4 10.5-25.1 12.3-39.7 10.8 22.1 14.7 43.3 11.7 64.1-1.3 21.2-3.9 51.6-24.9 67.5-32.5 28.1-13.3 56.1-26.6 84.2-40 41.3-19.5 65.5-32.9 62.9-82.1z" fill="#25B0F2" p-id="3743"></path><path d="M741.2 884.3c0.1-19.4 0.3-38.7 0.4-58.1-0.1-6-0.3-12.1-0.4-18.1-1.5-23.9 4.2-48.2-3.4-71.8-0.4-1.1-1.1-1.7-2.1-1.9 0.6-5.3-4.3-9.1-8.6-12.4-23.2-18-532.9-398.8-569.6-426.2-15.2-11.4-34-10.4-48.6 1.9-18 15.2-35.6 31-52.4 47.4-12.1 11.8-16.3 26.4-8.8 42.8 0.5 5.6 2.9 10.3 6.9 13.9 21.9 19.5 612.6 560.4 639.7 580.4 22.8 6.6 29 4.9 39.7-10.8 6-9.5 7.8-19.8 7.4-31-0.5-18.7-0.1-37.4-0.2-56.1z" fill="#0088D1" p-id="3744"></path></svg>